<svg width="136" height="63" viewBox="0 0 136 63" fill="none" xmlns="http://www.w3.org/2000/svg">
<path d="M0.352 27.128C1.86667 26.3173 3.34933 25.912 4.8 25.912C6.272 25.912 7.616 26.2213 8.832 26.84C11.264 28.0987 13.344 30.1573 15.072 33.016L20.8 42.328L30.304 28.152H30.592L34.208 46.872C34.9333 50.712 36.0107 53.3787 37.44 54.872C38.5707 56.0453 40.0107 56.632 41.76 56.632C41.9093 56.632 42.0693 56.632 42.24 56.632V56.952C40.9173 57.5067 39.5413 57.784 38.112 57.784C35.2747 57.784 32.8107 56.6747 30.72 54.456C28.9707 52.6213 27.744 50.0293 27.04 46.68L25.568 39.928L20.096 48.056C19.7333 48.568 19.4133 49.1867 19.136 49.912C18.8587 50.6373 18.7307 51.256 18.752 51.768H18.464L10.688 38.456L9.088 49.208V49.336C9.088 49.6773 9.20533 49.9973 9.44 50.296C9.696 50.5733 9.99467 50.712 10.336 50.712H10.816V51H3.808V50.68H4.32C4.896 50.68 5.39733 50.5093 5.824 50.168C6.272 49.8053 6.54933 49.3253 6.656 48.728L8.864 35C7.776 33.1013 6.57067 31.416 5.248 29.944C3.73333 28.28 2.21867 27.448 0.704 27.448C0.618666 27.448 0.533333 27.448 0.448 27.448L0.352 27.128Z" fill="url(#paint0_linear_71_1052)"/>
<path d="M53.3813 28.152C56.1333 28.152 58.5013 28.6107 60.4853 29.528C62.4906 30.4453 64.0266 31.7893 65.0933 33.56C66.1599 35.3093 66.6933 37.3893 66.6933 39.8C66.6933 43.448 65.5093 46.3067 63.1413 48.376C60.7733 50.424 57.5199 51.448 53.3813 51.448C49.2426 51.448 45.9893 50.424 43.6213 48.376C41.2746 46.3067 40.1013 43.448 40.1013 39.8C40.1013 36.152 41.2746 33.304 43.6213 31.256C45.9893 29.1867 49.2426 28.152 53.3813 28.152ZM48.8053 47.192C49.9146 48.9627 51.4399 49.848 53.3813 49.848C55.3439 49.848 56.8693 48.9627 57.9573 47.192C59.0666 45.4213 59.6213 42.9573 59.6213 39.8C59.6213 36.6427 59.0666 34.1787 57.9573 32.408C56.8693 30.6373 55.3439 29.752 53.3813 29.752C51.4399 29.752 49.9146 30.6373 48.8053 32.408C47.7173 34.1787 47.1733 36.6427 47.1733 39.8C47.1733 42.9573 47.7173 45.4213 48.8053 47.192Z" fill="url(#paint1_linear_71_1052)"/>
<path d="M95.3458 28.92H95.0578C93.9484 28.92 93.0631 29.496 92.4018 30.648L84.9458 47C83.8151 49.3893 83.2071 50.9787 83.1218 51.768H82.8338L72.6898 30.68C72.0284 29.5067 71.1324 28.92 70.0018 28.92H69.7458V28.6H81.8738V28.92H81.5858C81.1378 28.92 80.7964 29.0693 80.5618 29.368C80.3484 29.6453 80.2418 29.912 80.2418 30.168C80.2418 30.424 80.2844 30.68 80.3698 30.936L84.9458 41.912L89.7138 30.936C89.8418 30.6587 89.9058 30.4027 89.9058 30.168C89.9058 29.912 89.7884 29.6453 89.5538 29.368C89.3191 29.0693 88.9671 28.92 88.4978 28.92H88.2098V28.6H95.3458V28.92Z" fill="url(#paint2_linear_71_1052)"/>
<path d="M98.601 50.68C99.1557 50.68 99.625 50.488 100.009 50.104C100.414 49.6987 100.628 49.2187 100.649 48.664V30.904C100.628 30.3493 100.414 29.88 100.009 29.496C99.625 29.112 99.1557 28.92 98.601 28.92H98.185V28.6H109.673V28.92H109.257C108.702 28.92 108.222 29.112 107.817 29.496C107.433 29.88 107.23 30.3493 107.209 30.904V48.664C107.209 49.2187 107.412 49.6987 107.817 50.104C108.222 50.488 108.702 50.68 109.257 50.68H109.673V51H98.185V50.68H98.601Z" fill="url(#paint3_linear_71_1052)"/>
<path d="M115.176 50.68C115.731 50.68 116.2 50.488 116.584 50.104C116.989 49.6987 117.203 49.2187 117.224 48.664V30.936C117.203 30.2533 116.915 29.7093 116.36 29.304C116.019 29.048 115.624 28.92 115.176 28.92H114.76V28.6H128.936C129.853 28.6 130.664 28.5253 131.368 28.376C132.093 28.2267 132.552 28.1093 132.744 28.024V34.616H132.424V34.36C132.424 32.6533 131.805 31.4587 130.568 30.776C129.971 30.4347 129.256 30.2533 128.424 30.232H123.784V39.16H127.272C128.296 39.1387 129.128 38.808 129.768 38.168C130.408 37.5067 130.728 36.664 130.728 35.64V35.512H131.048V44.408H130.728V44.248C130.728 43.2453 130.408 42.424 129.768 41.784C129.128 41.1227 128.307 40.7813 127.304 40.76H123.784V49.368H127.72C129.277 49.368 130.653 48.856 131.848 47.832C133.043 46.808 133.885 45.3893 134.376 43.576H134.696L133.48 51H114.76V50.68H115.176Z" fill="url(#paint4_linear_71_1052)"/>
<path d="M66.622 16.82H66.91V17H60.52V16.838H60.808C61 16.838 61.168 16.76 61.312 16.604C61.468 16.436 61.534 16.256 61.51 16.064L60.826 10.808L57.766 15.344C57.562 15.632 57.382 15.98 57.226 16.388C57.07 16.796 56.998 17.144 57.01 17.432H56.848L52.168 10.97L51.538 16.064C51.514 16.256 51.574 16.436 51.718 16.604C51.874 16.76 52.048 16.838 52.24 16.838H52.528V17H48.568V16.82H48.856C49.192 16.82 49.48 16.718 49.72 16.514C49.972 16.31 50.122 16.034 50.17 15.686L51.754 4.148H51.916L57.964 12.41L63.508 4.148H63.67L65.308 15.686C65.368 16.034 65.518 16.31 65.758 16.514C65.998 16.718 66.286 16.82 66.622 16.82Z" fill="url(#paint5_radial_71_1052)"/>
<path d="M68.9939 16.82C69.3059 16.82 69.5699 16.712 69.7859 16.496C70.0139 16.268 70.1339 15.998 70.1459 15.686V5.696C70.1339 5.384 70.0139 5.12 69.7859 4.904C69.5699 4.688 69.3059 4.58 68.9939 4.58H68.7599V4.4H75.2219V4.58H74.9879C74.6759 4.58 74.4059 4.688 74.1779 4.904C73.9619 5.12 73.8479 5.384 73.8359 5.696V15.686C73.8359 15.998 73.9499 16.268 74.1779 16.496C74.4059 16.712 74.6759 16.82 74.9879 16.82H75.2219V17H68.7599V16.82H68.9939Z" fill="url(#paint6_linear_71_1052)"/>
<path d="M85.1034 16.82C85.3554 16.82 85.5594 16.694 85.7154 16.442C85.7874 16.322 85.8234 16.202 85.8234 16.082C85.8234 15.962 85.7874 15.836 85.7154 15.704L83.3394 12.086L80.7834 15.704C80.5794 16.064 80.6394 16.376 80.9634 16.64C81.1074 16.76 81.2574 16.82 81.4134 16.82H81.6474V17H76.9674V16.82H77.2194C77.8674 16.82 78.4614 16.478 79.0014 15.794L82.5834 10.898L79.1454 5.624C78.9414 5.336 78.6774 5.09 78.3534 4.886C78.0294 4.682 77.6874 4.58 77.3274 4.58H77.0754V4.4H84.3114V4.58H84.0954C83.8314 4.58 83.6274 4.706 83.4834 4.958C83.3994 5.078 83.3574 5.204 83.3574 5.336C83.3574 5.456 83.3934 5.576 83.4654 5.696L85.5714 8.882L87.6054 5.696C87.7974 5.336 87.7374 5.024 87.4254 4.76C87.2934 4.64 87.1434 4.58 86.9754 4.58H86.7594L86.7414 4.4H91.4034V4.58H91.1514C90.4554 4.58 89.8614 4.928 89.3694 5.624L86.3634 10.106L90.0714 15.776C90.2634 16.064 90.5214 16.31 90.8454 16.514C91.1814 16.718 91.5294 16.82 91.8894 16.82H92.1414V17H84.8694V16.82H85.1034Z" fill="url(#paint7_linear_71_1052)"/>
<defs>
<linearGradient id="paint0_linear_71_1052" x1="2.08299" y1="27.1667" x2="29.8321" y2="39.2869" gradientUnits="userSpaceOnUse">
<stop stop-color="#A40438"/>
<stop offset="1" stop-color="#940741"/>
</linearGradient>
<linearGradient id="paint1_linear_71_1052" x1="33.4545" y1="23.1056" x2="31.3699" y2="50.9505" gradientUnits="userSpaceOnUse">
<stop stop-color="#920740"/>
<stop offset="1" stop-color="#BF073D"/>
</linearGradient>
<linearGradient id="paint2_linear_71_1052" x1="51.5909" y1="25.4944" x2="54.6377" y2="54.7442" gradientUnits="userSpaceOnUse">
<stop stop-color="#B4063B"/>
<stop offset="1" stop-color="#80062D"/>
</linearGradient>
<linearGradient id="paint3_linear_71_1052" x1="70" y1="20" x2="70" y2="63" gradientUnits="userSpaceOnUse">
<stop stop-color="#A40438"/>
<stop offset="1" stop-color="#B4063B"/>
</linearGradient>
<linearGradient id="paint4_linear_71_1052" x1="74.0455" y1="27.1667" x2="91.4787" y2="41.3828" gradientUnits="userSpaceOnUse">
<stop stop-color="#BE073F"/>
<stop offset="1" stop-color="#8C073C"/>
</linearGradient>
<radialGradient id="paint5_radial_71_1052" cx="0" cy="0" r="1" gradientUnits="userSpaceOnUse" gradientTransform="translate(80.9539 4.97778) rotate(117.512) scale(7.91757 38.4293)">
<stop stop-color="#BE073F"/>
<stop offset="1" stop-color="#980633"/>
</radialGradient>
<linearGradient id="paint6_linear_71_1052" x1="83.8561" y1="17.3333" x2="93.3705" y2="7.28264" gradientUnits="userSpaceOnUse">
<stop stop-color="#940741"/>
<stop offset="1" stop-color="#BE073F"/>
</linearGradient>
<linearGradient id="paint7_linear_71_1052" x1="90.845" y1="2.08889" x2="78.7397" y2="14.5156" gradientUnits="userSpaceOnUse">
<stop stop-color="#BE073F"/>
<stop offset="1" stop-color="#621635"/>
</linearGradient>
</defs>
</svg>
