<svg width="25" height="25" viewBox="0 0 25 25" fill="none" xmlns="http://www.w3.org/2000/svg">
<path d="M3.75146 6.45273H5.75146H21.7515" stroke="#8C073C" stroke-width="2" stroke-linecap="round" stroke-linejoin="round"/>
<path d="M19.7515 6.45273V20.4527C19.7515 20.9832 19.5408 21.4919 19.1657 21.8669C18.7906 22.242 18.2819 22.4527 17.7515 22.4527H7.75146C7.22103 22.4527 6.71232 22.242 6.33725 21.8669C5.96218 21.4919 5.75146 20.9832 5.75146 20.4527V6.45273M8.75146 6.45273V4.45273C8.75146 3.9223 8.96218 3.41359 9.33725 3.03851C9.71232 2.66344 10.221 2.45273 10.7515 2.45273H14.7515C15.2819 2.45273 15.7906 2.66344 16.1657 3.03851C16.5408 3.41359 16.7515 3.9223 16.7515 4.45273V6.45273" stroke="#8C073C" stroke-width="2" stroke-linecap="round" stroke-linejoin="round"/>
<path d="M10.7515 11.4527V17.4527" stroke="#8C073C" stroke-width="2" stroke-linecap="round" stroke-linejoin="round"/>
<path d="M14.7515 11.4527V17.4527" stroke="#8C073C" stroke-width="2" stroke-linecap="round" stroke-linejoin="round"/>
</svg>
