<svg width="42" height="42" viewBox="0 0 42 42" fill="none" xmlns="http://www.w3.org/2000/svg">
<circle r="21" transform="matrix(-1 0 0 1 21 21)" fill="url(#paint0_linear_82_3631)"/>
<path fill-rule="evenodd" clip-rule="evenodd" d="M21 9C24.2592 9 24.6672 9.0144 25.9476 9.072C27.2244 9.1308 28.0968 9.3336 28.86 9.63C29.661 9.93101 30.3867 10.4032 30.9864 11.0136C31.5968 11.6133 32.069 12.339 32.37 13.14C32.6664 13.9032 32.8692 14.7756 32.928 16.0524C32.9868 17.3328 33 17.7408 33 21C33 24.2592 32.9868 24.6672 32.928 25.9476C32.8692 27.2244 32.6664 28.0968 32.37 28.86C32.0689 29.661 31.5967 30.3866 30.9864 30.9864C30.3866 31.5967 29.661 32.0689 28.86 32.37C28.0968 32.6664 27.2244 32.8692 25.9476 32.928C24.6672 32.9856 24.2592 33 21 33C17.7408 33 17.3328 32.9856 16.0524 32.928C14.7756 32.8692 13.9032 32.6664 13.14 32.37C12.339 32.069 11.6133 31.5968 11.0136 30.9864C10.4032 30.3867 9.93105 29.661 9.63 28.86C9.3336 28.0968 9.1308 27.2244 9.072 25.9476C9.0144 24.6672 9 24.2592 9 21C9 17.7408 9.0144 17.3328 9.072 16.0524C9.1308 14.7756 9.3336 13.9032 9.63 13.14C9.93105 12.339 10.4032 11.6133 11.0136 11.0136C11.6133 10.4032 12.339 9.93101 13.14 9.63C13.9032 9.3336 14.7756 9.1308 16.0524 9.072C17.3328 9.0144 17.7408 9 21 9ZM21 11.1624C17.796 11.1624 17.4168 11.1744 16.152 11.232C14.9808 11.286 14.346 11.4804 13.9224 11.6448C13.3632 11.8632 12.9624 12.1236 12.5424 12.5424C12.1224 12.9624 11.8632 13.3632 11.6448 13.9224C11.4816 14.346 11.2848 14.9808 11.232 16.1508C11.1744 17.4168 11.1624 17.7948 11.1624 21C11.1624 24.204 11.1744 24.5832 11.232 25.848C11.286 27.0192 11.4816 27.654 11.6448 28.0776C11.8372 28.5989 12.1439 29.0704 12.5424 29.4576C12.9624 29.8776 13.3632 30.1368 13.9224 30.3552C14.346 30.5184 14.9808 30.7152 16.1508 30.768C17.4156 30.8256 17.7948 30.8376 21 30.8376C24.204 30.8376 24.5844 30.8256 25.848 30.768C27.0192 30.714 27.654 30.5184 28.0776 30.3552C28.5989 30.1629 29.0705 29.8562 29.4576 29.4576C29.8562 29.0705 30.1629 28.5989 30.3552 28.0776C30.5196 27.654 30.7152 27.0192 30.768 25.8492C30.8256 24.5832 30.8376 24.2052 30.8376 21C30.8376 17.796 30.8256 17.4168 30.768 16.152C30.714 14.9808 30.5196 14.346 30.3552 13.9224C30.1368 13.3632 29.8764 12.9624 29.4576 12.5424C29.0376 12.1224 28.6368 11.8632 28.0776 11.6448C27.654 11.4804 27.0192 11.2848 25.8492 11.232C24.5832 11.1744 24.2052 11.1624 21 11.1624ZM21 24.9996C22.0608 24.9996 23.0781 24.5782 23.8281 23.8281C24.5782 23.0781 24.9996 22.0608 24.9996 21C24.9996 19.9392 24.5782 18.9219 23.8281 18.1719C23.0781 17.4218 22.0608 17.0004 21 17.0004C19.9392 17.0004 18.9219 17.4218 18.1719 18.1719C17.4218 18.9219 17.0004 19.9392 17.0004 21C17.0004 22.0608 17.4218 23.0781 18.1719 23.8281C18.9219 24.5782 19.9392 24.9996 21 24.9996ZM21 14.838C21.8092 14.838 22.6105 14.9974 23.3581 15.3071C24.1057 15.6167 24.785 16.0706 25.3572 16.6428C25.9294 17.215 26.3833 17.8943 26.6929 18.6419C27.0026 19.3895 27.162 20.1908 27.162 21C27.162 21.8092 27.0026 22.6105 26.6929 23.3581C26.3833 24.1057 25.9294 24.785 25.3572 25.3572C24.785 25.9294 24.1057 26.3833 23.3581 26.6929C22.6105 27.0026 21.8092 27.162 21 27.162C19.3657 27.162 17.7984 26.5128 16.6428 25.3572C15.4872 24.2016 14.838 22.6343 14.838 21C14.838 19.3657 15.4872 17.7984 16.6428 16.6428C17.7984 15.4872 19.3657 14.838 21 14.838ZM13.1544 14.5944C13.1544 14.7835 13.1916 14.9708 13.264 15.1455C13.3364 15.3202 13.4424 15.4789 13.5762 15.6126C13.7099 15.7464 13.8686 15.8524 14.0433 15.9248C14.218 15.9972 14.4053 16.0344 14.5944 16.0344C14.7835 16.0344 14.9708 15.9972 15.1455 15.9248C15.3202 15.8524 15.4789 15.7464 15.6126 15.6126C15.7463 15.4789 15.8524 15.3202 15.9248 15.1455C15.9972 14.9708 16.0344 14.7835 16.0344 14.5944C16.0344 14.2125 15.8827 13.8462 15.6126 13.5762C15.3426 13.3061 14.9763 13.1544 14.5944 13.1544C14.2125 13.1544 13.8462 13.3061 13.5762 13.5762C13.3061 13.8462 13.1544 14.2125 13.1544 14.5944Z" fill="white"/>
<defs>
<linearGradient id="paint0_linear_82_3631" x1="0" y1="21.6" x2="43.176" y2="21.6" gradientUnits="userSpaceOnUse">
<stop offset="0.453997" stop-color="#8C073C"/>
<stop offset="1" stop-color="#A80638"/>
</linearGradient>
</defs>
</svg>
