<svg width="42" height="42" viewBox="0 0 42 42" fill="none" xmlns="http://www.w3.org/2000/svg">
<circle r="21" transform="matrix(-1 0 0 1 21 21)" fill="url(#paint0_linear_82_3638)"/>
<path d="M8 20.9138C8 20.8461 8 20.7692 8.0029 20.6799C8.0058 20.4306 8.01161 20.1505 8.01741 19.852C8.04062 18.9932 8.08125 18.1376 8.14509 17.3312C8.23214 16.2201 8.35982 15.2936 8.53393 14.598C8.71766 13.8721 9.07781 13.2101 9.57837 12.678C10.0789 12.146 10.7024 11.7627 11.3864 11.5663C12.2076 11.3324 13.8152 11.1877 16.0786 11.0985C17.1551 11.0554 18.3071 11.0277 19.4592 11.0123C19.8625 11.0062 20.2368 11.0031 20.5734 11H21.4266C21.7632 11.0031 22.1375 11.0062 22.5408 11.0123C23.6929 11.0277 24.8449 11.0554 25.9214 11.0985C28.1848 11.1908 29.7953 11.3355 30.6136 11.5663C31.2979 11.7622 31.9215 12.1454 32.4222 12.6775C32.9228 13.2096 33.2828 13.8719 33.4661 14.598C33.6431 15.2936 33.7679 16.2201 33.8549 17.3312C33.9188 18.1376 33.9594 18.9932 33.9826 19.852C33.9913 20.1505 33.9942 20.4306 33.9971 20.6799C33.9971 20.7692 34 20.8461 34 20.9138V21.0862C34 21.1539 34 21.2308 33.9971 21.3201C33.9942 21.5694 33.9884 21.8495 33.9826 22.148C33.9594 23.0068 33.9188 23.8624 33.8549 24.6688C33.7679 25.7799 33.6402 26.7064 33.4661 27.402C33.0946 28.8763 32.0036 30.0397 30.6136 30.4337C29.7953 30.6676 28.1848 30.8122 25.9214 30.9015C24.8449 30.9446 23.6929 30.9723 22.5408 30.9877C22.1375 30.9938 21.7632 30.9969 21.4266 31H20.5734C20.2368 30.9969 19.8625 30.9938 19.4592 30.9877C18.3071 30.9723 17.1551 30.9446 16.0786 30.9015C13.8152 30.8092 12.2047 30.6645 11.3864 30.4337C9.99643 30.0397 8.90536 28.8793 8.53393 27.402C8.35692 26.7064 8.23214 25.7799 8.14509 24.6688C8.08125 23.8624 8.04062 23.0068 8.01741 22.148C8.00871 21.8495 8.0058 21.5694 8.0029 21.3201C8.0029 21.2308 8 21.1539 8 21.0862V20.9138ZM10.0893 21.0739C10.0893 21.1385 10.0893 21.2093 10.0922 21.2924C10.0951 21.5325 10.1009 21.7972 10.1067 22.0834C10.127 22.9021 10.1676 23.7208 10.2286 24.4811C10.3069 25.4721 10.4172 26.2847 10.5536 26.8295C10.7335 27.5405 11.2616 28.1037 11.929 28.2915C12.5384 28.4638 14.0734 28.6023 16.1598 28.6854C17.2161 28.7285 18.3536 28.7562 19.4882 28.7716C19.8857 28.7778 20.2542 28.7809 20.585 28.7809H21.415L22.5118 28.7716C23.6464 28.7562 24.781 28.7285 25.8402 28.6854C27.9266 28.5993 29.4645 28.4638 30.071 28.2915C30.7384 28.1006 31.2665 27.5405 31.4464 26.8295C31.5828 26.2847 31.6931 25.4721 31.7714 24.4811C31.8324 23.7208 31.8701 22.9021 31.8933 22.0834C31.902 21.7972 31.9049 21.5294 31.9078 21.2924C31.9078 21.2093 31.9107 21.1354 31.9107 21.0739V20.9261C31.9107 20.8615 31.9107 20.7907 31.9078 20.7076C31.9049 20.4675 31.8991 20.2028 31.8933 19.9166C31.873 19.0979 31.8324 18.2792 31.7714 17.5189C31.6931 16.5279 31.5828 15.7153 31.4464 15.1705C31.2665 14.4595 30.7384 13.8963 30.071 13.7085C29.4616 13.5362 27.9266 13.3977 25.8402 13.3146C24.7839 13.2715 23.6464 13.2438 22.5118 13.2284C22.1143 13.2222 21.7458 13.2191 21.415 13.2191H20.585L19.4882 13.2284C18.3536 13.2438 17.219 13.2715 16.1598 13.3146C14.0734 13.4007 12.5355 13.5362 11.929 13.7085C11.2616 13.8994 10.7335 14.4595 10.5536 15.1705C10.4172 15.7153 10.3069 16.5279 10.2286 17.5189C10.1676 18.2792 10.1299 19.0979 10.1067 19.9166C10.098 20.2028 10.0951 20.4706 10.0922 20.7076C10.0922 20.7907 10.0893 20.8646 10.0893 20.9261V21.0739ZM23.5826 25.1243L16.8504 20.9692L23.5826 16.8757V25.1243Z" fill="white"/>
<defs>
<linearGradient id="paint0_linear_82_3638" x1="0" y1="21.6" x2="43.176" y2="21.6" gradientUnits="userSpaceOnUse">
<stop offset="0.453997" stop-color="#8C073C"/>
<stop offset="1" stop-color="#A80638"/>
</linearGradient>
</defs>
</svg>
